PathFileType	4	(X/Y/Z)	C:\Users\willi\Documents\UniDataLokal\DATA_Hans_PhD\TD04\B\3DGAIT_B_W12\marker_experimental.trc
DataRate	CameraRate	NumFrames	NumMarkers	Units	OrigDataRate	OrigDataStartFrame	OrigNumFrames
100.000000	100.000000	4	97	mm	100.000000	143	191
Frame#	Time	RBAK			C7			CLAV			T10			STRN			RASI			RPSI			LPSI			LASI			LPELV			RPELV			RTHI1			RTHI2			RTHI3			RTHI			RKNE			RKNEM			RPAT			RLKNEL			RLKNEM			RLPAT			RTIB1			RTIB2			RTIB3			RTIB			RANK			RANKM			RHEEL			RTOE			RM5			LTHI1			LTHI2			LTHI3			LTHI			LKNE			LKNEM			LPAT			LLKNE			LLKNEM			LLPAT			LTIB1			LTIB2			LTIB3			LTIB			LANK			LANKM			LHEEL			LTOE			LM5			*49			*50			*51			*52			*53			*54			*55			*56			*57			*58			*59			*60			*61			*62			*63			*64			*65			*66			*67			*68			*69			*70			*71			*72			*73			*74			*75			*76			*77			*78			*79			*80			*81			*82			*83			*84			*85			*86			*87			*88			*89			*90			*91			*92			*93			*94			*95			*96			
		X1	Y1	Z1	X2	Y2	Z2	X3	Y3	Z3	X4	Y4	Z4	X5	Y5	Z5	X6	Y6	Z6	X7	Y7	Z7	X8	Y8	Z8	X9	Y9	Z9	X10	Y10	Z10	X11	Y11	Z11	X12	Y12	Z12	X13	Y13	Z13	X14	Y14	Z14	X15	Y15	Z15	X16	Y16	Z16	X17	Y17	Z17	X18	Y18	Z18	X19	Y19	Z19	X20	Y20	Z20	X21	Y21	Z21	X22	Y22	Z22	X23	Y23	Z23	X24	Y24	Z24	X25	Y25	Z25	X26	Y26	Z26	X27	Y27	Z27	X28	Y28	Z28	X29	Y29	Z29	X30	Y30	Z30	X31	Y31	Z31	X32	Y32	Z32	X33	Y33	Z33	X34	Y34	Z34	X35	Y35	Z35	X36	Y36	Z36	X37	Y37	Z37	X38	Y38	Z38	X39	Y39	Z39	X40	Y40	Z40	X41	Y41	Z41	X42	Y42	Z42	X43	Y43	Z43	X44	Y44	Z44	X45	Y45	Z45	X46	Y46	Z46	X47	Y47	Z47	X48	Y48	Z48	X49	Y49	Z49	X50	Y50	Z50	X51	Y51	Z51	X52	Y52	Z52	X53	Y53	Z53	X54	Y54	Z54	X55	Y55	Z55	X56	Y56	Z56	X57	Y57	Z57	X58	Y58	Z58	X59	Y59	Z59	X60	Y60	Z60	X61	Y61	Z61	X62	Y62	Z62	X63	Y63	Z63	X64	Y64	Z64	X65	Y65	Z65	X66	Y66	Z66	X67	Y67	Z67	X68	Y68	Z68	X69	Y69	Z69	X70	Y70	Z70	X71	Y71	Z71	X72	Y72	Z72	X73	Y73	Z73	X74	Y74	Z74	X75	Y75	Z75	X76	Y76	Z76	X77	Y77	Z77	X78	Y78	Z78	X79	Y79	Z79	X80	Y80	Z80	X81	Y81	Z81	X82	Y82	Z82	X83	Y83	Z83	X84	Y84	Z84	X85	Y85	Z85	X86	Y86	Z86	X87	Y87	Z87	X88	Y88	Z88	X89	Y89	Z89	X90	Y90	Z90	X91	Y91	Z91	X92	Y92	Z92	X93	Y93	Z93	X94	Y94	Z94	X95	Y95	Z95	X96	Y96	Z96	X97	Y97	Z97	

144	1.43	-16.54179954528803	1296.119506835938	327.0180969238281	12.31316184997565	1341.253784179688	228.3219451904297	122.285255432129	1257.505981445312	232.9474487304688	-7.37940120697017	960.9113159179688	231.5455017089844	182.9022216796875	1012.457397460938	233.8006439208984	151.8389282226563	856.359375	351.1104736328125	-21.88509368896481	888.568603515625	272.3884887695312	-20.99071693420406	889.4119873046875	183.2587585449219	175.3473663330079	862.4534301757812	143.7308807373047	84.68736267089849	933.21044921875	83.96894836425781	50.86191558837894	931.6994018554688	379.70361328125	-25.38003349304197	628.1033935546875	348.3285522460938	-2.741884946823109	565.3078002929688	374.7719421386719	-41.42676162719725	525.0499877929688	335.1311645507812	45.82880401611328	521.1054077148438	415.9708862304688	14.59225082397461	432.4363403320312	363.9261779785156	0.2028432935476416	422.5809326171875	237.6884460449219	63.73094177246094	395.1807861328125	301.1322021484375	-9.102126121520993	404.5384521484375	362.2602844238281	-42.63922500610351	390.0303039550781	243.7885437011719	-1.330053925514219	345.7396545410156	317.1463928222656	-72.76732635498047	263.5920104980469	323.4037475585938	-120.5469512939453	252.5940246582031	363.9354858398438	-142.8964996337891	200.5322113037109	323.1948547363281	-195.816162109375	245.8926239013672	399.8612365722656	-258.1529235839844	142.9393768310547	349.6061401367188	-229.2461547851563	137.3433227539062	277.7914733886719	-312.2767639160156	138.2715606689453	308.6806945800781	-169.7505798339844	35.05149841308594	338.3275146484375	-201.3959197998047	26.77067947387696	372.4711608886719	112.7999877929688	593.2618408203125	78.56916046142578	172.4345855712891	563.8269653320312	71.08602142333986	151.1177215576172	504.1230773925781	96.54380035400392	223.9000091552735	544.69287109375	46.70270919799806	239.3438873291016	449.4886474609375	106.6209564208985	191.3789825439453	432.3013916015625	220.2675323486328	278.0603332519532	464.2401428222656	188.9721984863282	229.0420837402344	411.968994140625	98.90613555908205	198.4618530273438	392.7326354980469	213.0090179443359	269.8749694824219	388.83349609375	162.16259765625	283.777099609375	254.7944641113281	158.5125732421875	279.1098022460938	201.9917907714843	113.2891616821289	292.5294189453125	158.93408203125	158.3142852783203	235.4336395263672	178.8681945800781	56.48900985717775	259.4044189453125	64.92480468749999	113.8613739013672	278.6896667480469	75.6638717651367	186.2769317626953	213.0858306884766	29.28708648681639	157.0994873046875	401.9965209960938	34.35541152954099	123.841537475586	374.6940002441406	8.153728485107399	88.87433624267581	nan	nan	nan	nan	nan	nan	nan	nan	nan	nan	nan	nan	nan	nan	nan	nan	nan	nan	nan	nan	nan	nan	nan	nan	nan	nan	nan	nan	nan	nan	nan	nan	nan	nan	nan	nan	nan	nan	nan	nan	nan	nan	nan	nan	nan	nan	nan	nan	nan	nan	nan	nan	nan	nan	nan	nan	nan	nan	nan	nan	nan	nan	nan	nan	nan	nan	nan	nan	nan	nan	nan	nan	nan	nan	nan	nan	nan	nan	nan	nan	nan	nan	nan	nan	nan	nan	nan	nan	nan	nan	nan	nan	nan	nan	nan	nan	nan	nan	nan	nan	nan	nan	nan	nan	nan	nan	nan	nan	nan	nan	nan	nan	nan	nan	nan	nan	nan	nan	nan	nan	nan	nan	nan	nan	nan	nan	nan	nan	nan	nan	nan	nan	nan	nan	nan	nan	nan	nan	nan	nan	nan	nan	nan	nan	
145	1.44	-5.373174190521181	1297.05029296875	324.9639587402344	23.43557739257819	1342.206665039062	226.2754821777344	133.5115966796876	1258.583618164062	230.8906555175781	4.216005325317427	961.8281860351562	230.4447021484375	194.4057769775391	1013.843444824219	232.4381103515625	164.308822631836	857.0062255859375	349.1301574707031	-9.697888374328574	889.2625732421875	271.5487060546875	-9.248367309570268	890.7544555664062	182.1314239501953	187.2836608886719	864.1432495117188	142.0322418212891	96.46465301513678	935.1060180664062	82.55145263671875	63.68972778320316	932.4749755859375	378.3276672363281	-10.18966865539549	625.7042846679688	346.408447265625	13.87987327575685	563.4811401367188	373.2031555175781	-23.78453445434569	522.2553100585938	333.6174926757812	63.07033538818359	520.5188598632812	415.0468139648438	33.51082611083985	431.3412170410156	363.6287231445312	21.39082145690919	420.0210571289062	237.5233001708984	83.78765106201173	393.3288879394531	302.0435485839844	9.598744392395023	403.7426452636719	361.9742736816406	-21.83122634887694	387.7762451171875	243.2765502929688	17.18151092529297	344.2112121582031	318.0252380371094	-57.26374053955079	264.7045593261719	324.2054138183594	-106.3354949951172	255.6890716552734	364.4399719238281	-129.4024200439453	203.4873657226562	324.3114013671875	-182.3241882324219	252.1752777099609	399.1546020507812	-246.9756317138672	150.3103942871094	349.7752380371094	-217.2837066650391	142.5582733154297	278.6283569335938	-299.9855346679688	149.0174102783203	308.1531982421875	-168.0549468994141	35.14913940429688	337.9681396484375	-199.3334197998047	29.19826316833497	372.0335388183594	124.2656326293946	595.1093139648438	76.69712829589845	183.6479034423828	565.1062622070312	70.1266326904297	161.7816772460938	505.7843933105469	94.91556549072267	235.4246063232422	545.9266357421875	46.02699661254884	249.467041015625	450.3478088378906	106.2369003295899	200.2156677246094	433.9042358398438	219.1434783935547	287.2893371582032	464.7013854980469	188.9010162353516	238.7637634277344	412.7715454101562	98.46308898925783	206.4241638183594	394.1792907714844	211.7019500732422	278.3892211914062	388.8840637207031	162.1425933837891	289.1662292480469	253.9916381835937	158.731430053711	283.8908081054688	201.3846588134765	113.4339904785156	295.6112365722656	157.976318359375	158.6831665039063	241.0149993896484	179.2938537597656	55.76207733154298	260.6275634765625	64.9100875854492	113.8068313598633	279.6487121582031	75.19942474365233	186.4297332763672	213.5038146972656	29.69904136657713	156.8218841552734	403.6476440429688	33.3695487976074	123.3743438720703	375.1168823242188	7.564638614654518	88.06153869628909	nan	nan	nan	nan	nan	nan	nan	nan	nan	nan	nan	nan	nan	nan	nan	nan	nan	nan	nan	nan	nan	nan	nan	nan	nan	nan	nan	nan	nan	nan	nan	nan	nan	nan	nan	nan	nan	nan	nan	nan	nan	nan	nan	nan	nan	nan	nan	nan	nan	nan	nan	nan	nan	nan	nan	nan	nan	nan	nan	nan	nan	nan	nan	nan	nan	nan	nan	nan	nan	nan	nan	nan	nan	nan	nan	nan	nan	nan	nan	nan	nan	nan	nan	nan	nan	nan	nan	nan	nan	nan	nan	nan	nan	nan	nan	nan	nan	nan	nan	nan	nan	nan	nan	nan	nan	nan	nan	nan	nan	nan	nan	nan	nan	nan	nan	nan	nan	nan	nan	nan	nan	nan	nan	nan	nan	nan	nan	nan	nan	nan	nan	nan	nan	nan	nan	nan	nan	nan	nan	nan	nan	nan	nan	nan	
146	1.45	5.749746799469054	1298.134521484375	322.9525451660156	34.53585052490241	1343.295043945312	224.2726745605469	144.6807556152345	1259.777221679688	228.9062347412109	15.67811965942387	962.8905639648438	229.3125152587891	205.7754669189454	1015.318054199219	231.1438751220703	176.4966125488282	857.7978515625	347.2096557617188	2.289824962616005	890.0491333007812	270.6495971679688	2.33298230171208	892.1863403320312	180.9793395996094	199.0192413330079	865.88427734375	140.3702697753906	108.0948104858399	937.0364990234375	81.1402587890625	76.11600494384768	933.3106689453125	376.9175720214844	5.287963867187517	623.1465454101562	344.496826171875	30.90938758850099	561.5938110351562	371.7464599609375	-5.500953674316395	519.2474365234375	332.2349243164062	80.79135131835938	520.0160522460938	414.3334350585938	53.25265502929688	430.2727966308594	363.5195007324219	43.89304351806642	417.322021484375	237.5291290283203	104.6960906982422	391.6714172363281	303.2634887695312	29.21397209167481	402.9396362304688	361.8147888183594	0.2678526043891994	385.3221435546875	242.7971343994141	36.69596099853516	342.7738342285156	318.98779296875	-40.4665756225586	265.867919921875	324.9242553710938	-90.83044433593751	258.8349914550781	364.8616333007812	-114.6056900024414	206.5538787841797	325.2774047851562	-167.4079437255859	258.4927368164062	398.3191223144531	-234.2929077148438	157.8567657470703	349.7526550292969	-203.9427032470703	147.8820343017578	279.2757263183594	-285.9876098632812	160.039291381836	307.2969665527344	-166.0034637451172	35.82641983032227	337.5037536621094	-196.6150970458985	32.56339263916017	371.5997009277344	135.1178436279297	596.9530029296875	74.90199279785158	194.1716918945313	566.2899780273438	69.17659759521486	171.6698303222657	507.3975524902344	93.36177062988283	246.131088256836	546.9495849609375	45.27516555786134	258.7426147460938	451.0015563964844	105.7708740234375	208.3644561767578	435.1567687988281	218.1687164306641	295.8266296386719	464.9522705078125	188.7176513671875	247.6380310058594	413.4170227050781	97.98091888427736	213.3992462158203	395.1134948730469	210.3855590820312	286.1841735839844	388.8349304199219	162.0538177490235	294.0062255859375	253.2638702392578	158.8661346435547	288.0896606445312	200.8291931152343	113.5447769165039	298.2994689941406	157.1656341552734	158.9962768554688	245.7791900634766	179.6059265136718	55.20204544067384	261.5832214355469	64.9678497314453	113.8515853881836	280.38427734375	74.88825225830077	186.6480255126953	213.8804473876953	29.97689247131346	156.6372528076172	404.9197692871094	32.9287643432617	123.0260696411133	375.4395751953125	7.4906687736511	87.40181732177737	nan	nan	nan	nan	nan	nan	nan	nan	nan	nan	nan	nan	nan	nan	nan	nan	nan	nan	nan	nan	nan	nan	nan	nan	nan	nan	nan	nan	nan	nan	nan	nan	nan	nan	nan	nan	nan	nan	nan	nan	nan	nan	nan	nan	nan	nan	nan	nan	nan	nan	nan	nan	nan	nan	nan	nan	nan	nan	nan	nan	nan	nan	nan	nan	nan	nan	nan	nan	nan	nan	nan	nan	nan	nan	nan	nan	nan	nan	nan	nan	nan	nan	nan	nan	nan	nan	nan	nan	nan	nan	nan	nan	nan	nan	nan	nan	nan	nan	nan	nan	nan	nan	nan	nan	nan	nan	nan	nan	nan	nan	nan	nan	nan	nan	nan	nan	nan	nan	nan	nan	nan	nan	nan	nan	nan	nan	nan	nan	nan	nan	nan	nan	nan	nan	nan	nan	nan	nan	nan	nan	nan	nan	nan	nan	
147	1.46	16.81752014160162	1299.353149414062	320.9959411621094	45.60651016235359	1344.50048828125	222.3255004882812	155.7837677001954	1261.065063476562	227.0092620849609	26.98985671997075	964.078857421875	228.1451263427734	217.002670288086	1016.846618652344	229.9119873046875	188.361328125	858.717529296875	345.3767700195312	14.04624271392826	890.9152221679688	269.68212890625	13.73551559448247	893.6792602539062	179.8018493652344	210.5296630859376	867.6206665039062	138.7524719238281	119.5584335327149	938.9406127929688	79.73632049560548	88.08656311035159	934.1826171875	375.4757690429688	20.99634552001955	620.4889526367188	342.5990295410156	48.24673080444337	559.7103881835938	370.3970031738281	13.31601428985597	516.1295166015625	330.970703125	98.83873748779297	519.6427612304688	413.8206787109375	73.68363189697266	429.3021545410156	363.5749206542969	67.45942687988283	414.6648864746094	237.6653900146484	126.3180541992188	390.3097839355469	304.7163696289062	49.63028335571289	402.1936645507812	361.7638244628906	23.45456695556642	382.8269348144531	242.3246307373047	57.10713195800781	341.5022888183594	319.9769592285156	-22.43759918212891	267.0771179199219	325.50390625	-74.09358215332033	262.0267028808594	365.1440734863281	-98.59183502197266	209.7361755371094	326.0159606933594	-151.1187896728516	264.7897033691406	397.3199157714844	-220.1618041992188	165.5480804443359	349.45849609375	-189.2775268554688	153.2995147705078	279.6549682617188	-270.3673095703125	171.1733856201172	306.0397338867188	-163.3406982421875	37.33129119873048	337.0205078125	-192.9998016357422	37.0648765563965	371.2206726074219	145.3238983154297	598.755126953125	73.21813964843751	203.9821472167969	567.3568115234375	68.24240875244142	180.7541198730469	508.9296875	91.91481018066408	255.9873504638672	547.7254028320312	44.46839141845705	267.1615295410156	451.4372253417969	105.2382965087891	215.635009765625	436.04296875	217.2862854003906	303.6633911132813	464.9847106933594	188.4501953125	255.655502319336	413.8900146484375	97.46739196777345	219.4240875244141	395.5943908691406	209.1299285888672	293.2570495605469	388.6766052246094	161.9036560058594	298.3207397460938	252.5941925048828	158.9219207763672	291.7267150878906	200.3033142089843	113.6238403320313	300.6333312988281	156.4711303710937	159.2543487548828	249.6925354003906	179.7948303222656	54.82743453979494	262.3032531738281	65.05895996093749	113.987419128418	280.9451599121094	74.67725372314452	186.9234924316407	214.2017059326172	30.1359519958496	156.5482940673828	405.8429565429688	32.82165145874021	122.8131713867188	375.6707763671875	7.715713024139381	86.92498016357425	nan	nan	nan	nan	nan	nan	nan	nan	nan	nan	nan	nan	nan	nan	nan	nan	nan	nan	nan	nan	nan	nan	nan	nan	nan	nan	nan	nan	nan	nan	nan	nan	nan	nan	nan	nan	nan	nan	nan	nan	nan	nan	nan	nan	nan	nan	nan	nan	nan	nan	nan	nan	nan	nan	nan	nan	nan	nan	nan	nan	nan	nan	nan	nan	nan	nan	nan	nan	nan	nan	nan	nan	nan	nan	nan	nan	nan	nan	nan	nan	nan	nan	nan	nan	nan	nan	nan	nan	nan	nan	nan	nan	nan	nan	nan	nan	nan	nan	nan	nan	nan	nan	nan	nan	nan	nan	nan	nan	nan	nan	nan	nan	nan	nan	nan	nan	nan	nan	nan	nan	nan	nan	nan	nan	nan	nan	nan	nan	nan	nan	nan	nan	nan	nan	nan	nan	nan	nan	nan	nan	nan	nan	nan	nan	
